<svg xmlns="http://www.w3.org/2000/svg" xmlns:svg="http://www.w3.org/2000/svg" id="svg2" width="275.133" height="304.575" version="1.1" viewBox="0 0 257.937 285.539"><defs id="defs4"><marker id="marker12257" orient="auto" refX="0" refY="0" style="overflow:visible"><path id="path12259" d="M 0,0 5,-5 -12.5,0 5,5 Z" transform="matrix(-0.8,0,0,-0.8,-10,0)" style="fill:#666;fill-opacity:1;fill-rule:evenodd;stroke:#666;stroke-width:1.00000003pt;stroke-opacity:1"/></marker><marker style="overflow:visible" id="marker11059" orient="auto" refX="0" refY="0"><path style="fill:#666;fill-opacity:1;fill-rule:evenodd;stroke:#666;stroke-width:1.00000003pt;stroke-opacity:1" id="path11061" d="M 0,0 5,-5 -12.5,0 5,5 Z" transform="matrix(-0.8,0,0,-0.8,-10,0)"/></marker><marker id="marker6735" orient="auto" refX="0" refY="0" style="overflow:visible"><path id="path6737" d="M 0,0 5,-5 -12.5,0 5,5 Z" transform="matrix(-0.8,0,0,-0.8,-10,0)" style="fill:red;fill-opacity:1;fill-rule:evenodd;stroke:red;stroke-width:1.00000003pt;stroke-opacity:1"/></marker><marker id="Arrow1Lend" orient="auto" refX="0" refY="0" style="overflow:visible"><path id="path6191" d="M 0,0 5,-5 -12.5,0 5,5 Z" transform="matrix(-0.8,0,0,-0.8,-10,0)" style="fill:#666;fill-opacity:1;fill-rule:evenodd;stroke:#666;stroke-width:1.00000003pt;stroke-opacity:1"/></marker><marker id="marker6735-4" orient="auto" refX="0" refY="0" style="overflow:visible"><path id="path6737-6" d="M 0,0 5,-5 -12.5,0 5,5 Z" transform="matrix(-0.8,0,0,-0.8,-10,0)" style="fill:#666;fill-opacity:1;fill-rule:evenodd;stroke:#666;stroke-width:1.00000003pt;stroke-opacity:1"/></marker><marker id="marker6735-6" orient="auto" refX="0" refY="0" style="overflow:visible"><path id="path6737-7" d="M 0,0 5,-5 -12.5,0 5,5 Z" transform="matrix(-0.8,0,0,-0.8,-10,0)" style="fill:#666;fill-opacity:1;fill-rule:evenodd;stroke:#666;stroke-width:1.00000003pt;stroke-opacity:1"/></marker></defs><metadata id="metadata7"/><g id="layer1" transform="translate(-121.65977,-41.187943)"><path style="fill:#666;fill-opacity:1;fill-rule:evenodd;stroke:none;stroke-width:1px;stroke-linecap:butt;stroke-linejoin:miter;stroke-opacity:1" id="path5618-0" d="m 192.97021,76.736577 12.39295,0.0223 -0.0207,10.0459 15.43867,-18.10275 -15.42523,-17.8284 -0.01,10.00683 -12.41063,-0.0434 z"/><rect id="rect5837-3" width="166.06" height="268.805" x="212.538" y="56.922" style="opacity:1;fill:none;fill-opacity:1;stroke:#666;stroke-width:2;stroke-linejoin:miter;stroke-miterlimit:4;stroke-dasharray:none;stroke-dashoffset:0;stroke-opacity:1"/><path style="fill:none;fill-rule:evenodd;stroke:#000;stroke-width:.9375px;stroke-linecap:butt;stroke-linejoin:miter;stroke-opacity:1" id="path3856" d="M 220.67844,192.19745 H 370.06867"/><path style="fill:none;fill-rule:evenodd;stroke:#000;stroke-width:.9375px;stroke-linecap:butt;stroke-linejoin:miter;stroke-opacity:1" id="path3856-3" d="M 220.67844,170.04157 H 370.06867"/><path style="fill:none;fill-rule:evenodd;stroke:#000;stroke-width:.9375px;stroke-linecap:butt;stroke-linejoin:miter;stroke-opacity:1" id="path3856-5" d="M 220.67844,147.88567 H 370.06867"/><path style="fill:none;fill-rule:evenodd;stroke:#000;stroke-width:.9375px;stroke-linecap:butt;stroke-linejoin:miter;stroke-opacity:1" id="path3856-3-6" d="M 220.67844,92.495947 H 370.06868"/><path style="fill:none;fill-rule:evenodd;stroke:#000;stroke-width:.9375px;stroke-linecap:butt;stroke-linejoin:miter;stroke-opacity:1" id="path3856-2" d="M 220.67844,136.80773 H 370.06867"/><path style="fill:none;fill-rule:evenodd;stroke:#000;stroke-width:.9375px;stroke-linecap:butt;stroke-linejoin:miter;stroke-opacity:1" id="path3856-3-9" d="M 220.67844,81.418011 H 370.06868"/><path style="fill:none;fill-rule:evenodd;stroke:#000;stroke-width:.9375px;stroke-linecap:butt;stroke-linejoin:miter;stroke-opacity:1" id="path3856-1" d="M 220.67844,125.7298 H 370.06867"/><path style="fill:none;fill-rule:evenodd;stroke:#000;stroke-width:.9375px;stroke-linecap:butt;stroke-linejoin:miter;stroke-opacity:1" id="path3856-3-2" d="M 220.67844,70.340072 H 370.06868"/><path style="fill:none;fill-rule:evenodd;stroke:#000;stroke-width:.9375px;stroke-linecap:butt;stroke-linejoin:miter;stroke-opacity:1" id="path3856-7" d="M 220.67844,114.65183 H 370.06867"/><path style="fill:none;fill-rule:evenodd;stroke:#000;stroke-width:.9375px;stroke-linecap:butt;stroke-linejoin:miter;stroke-opacity:1" id="path3856-3-0" d="M 220.67844,103.57389 H 370.06868"/><path style="fill:none;fill-rule:evenodd;stroke:#000;stroke-width:.9375px;stroke-linecap:butt;stroke-linejoin:miter;stroke-opacity:1" id="path3856-9" d="M 220.67844,314.05482 H 370.06867"/><path style="fill:none;fill-rule:evenodd;stroke:#000;stroke-width:.9375px;stroke-linecap:butt;stroke-linejoin:miter;stroke-opacity:1" id="path3856-3-3" d="M 220.67844,236.50923 H 370.06868"/><path style="fill:none;fill-rule:evenodd;stroke:#000;stroke-width:.9375px;stroke-linecap:butt;stroke-linejoin:miter;stroke-opacity:1" id="path3856-6" d="M 220.67844,302.97688 H 370.06867"/><path style="fill:none;fill-rule:evenodd;stroke:#000;stroke-width:.9375px;stroke-linecap:butt;stroke-linejoin:miter;stroke-opacity:1" id="path3856-3-06" d="M 220.67844,214.35332 H 370.06868"/><path style="fill:none;fill-rule:evenodd;stroke:#000;stroke-width:.9375px;stroke-linecap:butt;stroke-linejoin:miter;stroke-opacity:1" id="path3856-26" d="M 220.67844,280.82101 H 370.06867"/><path style="fill:none;fill-rule:evenodd;stroke:#000;stroke-width:.9375px;stroke-linecap:butt;stroke-linejoin:miter;stroke-opacity:1" id="path3856-3-1" d="M 220.67844,258.6651 H 370.06868"/><path style="fill:none;fill-rule:evenodd;stroke:#000;stroke-width:.9375px;stroke-linecap:butt;stroke-linejoin:miter;stroke-opacity:1" id="path3856-8" d="M 220.67844,158.96364 H 370.06867"/><path style="fill:none;fill-rule:evenodd;stroke:#000;stroke-width:.9375px;stroke-linecap:butt;stroke-linejoin:miter;stroke-opacity:1" id="path3856-9-7" d="M 220.67844,291.89895 H 370.06867"/><path style="fill:none;fill-rule:evenodd;stroke:#000;stroke-width:.9375px;stroke-linecap:butt;stroke-linejoin:miter;stroke-opacity:1" id="path3856-3-3-9" d="M 220.67844,203.27539 H 370.06868"/><path style="fill:none;fill-rule:evenodd;stroke:#000;stroke-width:.9375px;stroke-linecap:butt;stroke-linejoin:miter;stroke-opacity:1" id="path3856-6-2" d="M 220.67844,269.74303 H 370.06867"/><path style="fill:none;fill-rule:evenodd;stroke:#000;stroke-width:.9375px;stroke-linecap:butt;stroke-linejoin:miter;stroke-opacity:1" id="path3856-3-06-0" d="M 220.67844,181.11951 H 370.06868"/><path style="fill:none;fill-rule:evenodd;stroke:#000;stroke-width:.9375px;stroke-linecap:butt;stroke-linejoin:miter;stroke-opacity:1" id="path3856-26-2" d="M 220.67844,247.58715 H 370.06867"/><path style="fill:none;fill-rule:evenodd;stroke:#000;stroke-width:.9375px;stroke-linecap:butt;stroke-linejoin:miter;stroke-opacity:1" id="path3856-3-1-3" d="M 220.67844,225.43126 H 370.06868"/><text style="font-style:normal;font-variant:normal;font-weight:400;font-stretch:normal;font-size:12.5px;line-height:0%;font-family:'VL Gothic';-inkscape-font-specification:'VL Gothic';text-align:start;letter-spacing:0;word-spacing:0;writing-mode:lr-tb;text-anchor:start;fill:#000;fill-opacity:1;stroke:none;stroke-width:1px;stroke-linecap:butt;stroke-linejoin:miter;stroke-opacity:1" id="text4771-7" x="259.209" y="50.688" xml:space="preserve"><tspan style="stroke-width:1px" id="tspan4773-5" x="259.209" y="50.688">input file</tspan></text><path style="fill:none;fill-rule:evenodd;stroke:red;stroke-width:2.8125;stroke-linecap:butt;stroke-linejoin:miter;stroke-miterlimit:4;stroke-dasharray:none;stroke-opacity:1" id="path4039" d="m 255.2964,187.32758 h -6.07639 v 10.41668 l 6.11255,-0.0362"/><path style="fill:none;fill-rule:evenodd;stroke:red;stroke-width:2.8125;stroke-linecap:butt;stroke-linejoin:miter;stroke-miterlimit:4;stroke-dasharray:none;stroke-opacity:1" id="path4039-9" d="m 333.85358,218.87042 6.07638,0.0105 0.018,-10.41665 -6.1126,0.0256"/><path style="fill:none;fill-rule:evenodd;stroke:red;stroke-width:2.8125;stroke-linecap:round;stroke-linejoin:round;stroke-miterlimit:4;stroke-dasharray:2.81249994,8.43749982;stroke-dashoffset:0;stroke-opacity:1" id="path4908" d="m 256.25126,192.13226 113.81742,-0.26131"/><path style="fill:none;fill-rule:evenodd;stroke:red;stroke-width:2.8125;stroke-linecap:round;stroke-linejoin:round;stroke-miterlimit:4;stroke-dasharray:2.81249997,8.4374999;stroke-dashoffset:0;stroke-opacity:1" id="path4908-2" d="M 220.67844,202.94889 H 370.06868"/><path style="fill:none;fill-rule:evenodd;stroke:red;stroke-width:2.8125;stroke-linecap:round;stroke-linejoin:round;stroke-miterlimit:4;stroke-dasharray:2.8125,8.43749998;stroke-dashoffset:0;stroke-opacity:1" id="path4908-2-2" d="M 220.67844,214.02683 H 335.38118"/><g id="g5595" transform="translate(-145.21796,91.603998)"><g id="text4771-7-9-7" aria-label="area" transform="translate(10.093756,22.609375)" style="font-style:normal;font-variant:normal;font-weight:400;font-stretch:normal;font-size:12.5px;line-height:0%;font-family:'VL Gothic';-inkscape-font-specification:'VL Gothic';text-align:start;letter-spacing:0;word-spacing:0;writing-mode:lr-tb;text-anchor:start;fill:#000;fill-opacity:1;stroke:#fff;stroke-width:1px;stroke-linecap:butt;stroke-linejoin:miter;stroke-opacity:1"><path id="path5522-8" d="m 417.02206,85.088997 q 1.25,0 1.7125,0.5 0.475,0.5 0.475,1.875 v 4.25 h -0.9 l -0.025,-0.9375 h -0.025 q -0.5875,1.0625 -1.8625,1.0625 -0.8125,0 -1.3125,-0.5125 -0.5,-0.525 -0.5,-1.425 0,-1.1375 0.7625,-1.75 0.775,-0.625 2.3,-0.625 h 0.6 v -0.3125 q 0,-0.7125 -0.275,-1 -0.275,-0.2875 -0.95,-0.2875 -0.4125,0 -1.05,0.15 -0.6375,0.15 -1.075,0.35 v -0.9 q 0.4375,-0.1875 1.0625,-0.3125 0.625,-0.125 1.0625,-0.125 z m 1.225,3.1875 h -0.6 q -2.125,0 -2.125,1.5625 0,0.5625 0.2875,0.8625 0.2875,0.3 0.775,0.3 0.7375,0 1.2,-0.6 0.4625,-0.6 0.4625,-1.6875 z" style="stroke:#fff;stroke-width:1px;stroke-opacity:1"/><path id="path5524-4" d="m 422.40956,85.213997 v 1.25 h 0.025 q 0.775,-1.375 2.15,-1.375 0.4625,0 0.875,0.125 v 0.875 q -0.4375,-0.1375 -0.875,-0.1375 -0.9125,0 -1.525,0.7625 -0.6125,0.7625 -0.6125,2 v 3 h -0.9875 v -6.5 z" style="stroke:#fff;stroke-width:1px;stroke-opacity:1"/><path id="path5526-5" d="m 428.05956,88.788997 q 0.05,1.1625 0.475,1.675 0.425,0.5125 1.2375,0.5125 0.7625,0 1.6875,-0.45 v 1 q -0.925,0.3125 -1.75,0.3125 -2.6875,0 -2.6875,-3.375 0,-1.7625 0.625,-2.5625 0.625,-0.8125 1.875,-0.8125 1.1375,0 1.6875,0.775 0.5625,0.775 0.5625,2.5375 0,0.1375 -0.025,0.3875 z m 0,-0.825 h 2.725 q -0.0125,-2.0125 -1.2625,-2.0125 -0.7125,0 -1.0625,0.45 -0.35,0.45 -0.4,1.5625 z" style="stroke:#fff;stroke-width:1px;stroke-opacity:1"/><path id="path5528-0" d="m 435.77206,85.088997 q 1.25,0 1.7125,0.5 0.475,0.5 0.475,1.875 v 4.25 h -0.9 l -0.025,-0.9375 h -0.025 q -0.5875,1.0625 -1.8625,1.0625 -0.8125,0 -1.3125,-0.5125 -0.5,-0.525 -0.5,-1.425 0,-1.1375 0.7625,-1.75 0.775,-0.625 2.3,-0.625 h 0.6 v -0.3125 q 0,-0.7125 -0.275,-1 -0.275,-0.2875 -0.95,-0.2875 -0.4125,0 -1.05,0.15 -0.6375,0.15 -1.075,0.35 v -0.9 q 0.4375,-0.1875 1.0625,-0.3125 0.625,-0.125 1.0625,-0.125 z m 1.225,3.1875 h -0.6 q -2.125,0 -2.125,1.5625 0,0.5625 0.2875,0.8625 0.2875,0.3 0.775,0.3 0.7375,0 1.2,-0.6 0.4625,-0.6 0.4625,-1.6875 z" style="stroke:#fff;stroke-width:1px;stroke-opacity:1"/></g><g id="text4771-7-9" aria-label="area" transform="translate(10.093756,22.609375)" style="font-style:normal;font-variant:normal;font-weight:400;font-stretch:normal;font-size:12.5px;line-height:0%;font-family:'VL Gothic';-inkscape-font-specification:'VL Gothic';text-align:start;letter-spacing:0;word-spacing:0;writing-mode:lr-tb;text-anchor:start;fill:#000;fill-opacity:1;stroke:none;stroke-width:1px;stroke-linecap:butt;stroke-linejoin:miter;stroke-opacity:1"><path id="path5522" d="m 417.02206,85.088997 q 1.25,0 1.7125,0.5 0.475,0.5 0.475,1.875 v 4.25 h -0.9 l -0.025,-0.9375 h -0.025 q -0.5875,1.0625 -1.8625,1.0625 -0.8125,0 -1.3125,-0.5125 -0.5,-0.525 -0.5,-1.425 0,-1.1375 0.7625,-1.75 0.775,-0.625 2.3,-0.625 h 0.6 v -0.3125 q 0,-0.7125 -0.275,-1 -0.275,-0.2875 -0.95,-0.2875 -0.4125,0 -1.05,0.15 -0.6375,0.15 -1.075,0.35 v -0.9 q 0.4375,-0.1875 1.0625,-0.3125 0.625,-0.125 1.0625,-0.125 z m 1.225,3.1875 h -0.6 q -2.125,0 -2.125,1.5625 0,0.5625 0.2875,0.8625 0.2875,0.3 0.775,0.3 0.7375,0 1.2,-0.6 0.4625,-0.6 0.4625,-1.6875 z" style="stroke-width:1px"/><path id="path5524" d="m 422.40956,85.213997 v 1.25 h 0.025 q 0.775,-1.375 2.15,-1.375 0.4625,0 0.875,0.125 v 0.875 q -0.4375,-0.1375 -0.875,-0.1375 -0.9125,0 -1.525,0.7625 -0.6125,0.7625 -0.6125,2 v 3 h -0.9875 v -6.5 z" style="stroke-width:1px"/><path id="path5526" d="m 428.05956,88.788997 q 0.05,1.1625 0.475,1.675 0.425,0.5125 1.2375,0.5125 0.7625,0 1.6875,-0.45 v 1 q -0.925,0.3125 -1.75,0.3125 -2.6875,0 -2.6875,-3.375 0,-1.7625 0.625,-2.5625 0.625,-0.8125 1.875,-0.8125 1.1375,0 1.6875,0.775 0.5625,0.775 0.5625,2.5375 0,0.1375 -0.025,0.3875 z m 0,-0.825 h 2.725 q -0.0125,-2.0125 -1.2625,-2.0125 -0.7125,0 -1.0625,0.45 -0.35,0.45 -0.4,1.5625 z" style="stroke-width:1px"/><path id="path5528" d="m 435.77206,85.088997 q 1.25,0 1.7125,0.5 0.475,0.5 0.475,1.875 v 4.25 h -0.9 l -0.025,-0.9375 h -0.025 q -0.5875,1.0625 -1.8625,1.0625 -0.8125,0 -1.3125,-0.5125 -0.5,-0.525 -0.5,-1.425 0,-1.1375 0.7625,-1.75 0.775,-0.625 2.3,-0.625 h 0.6 v -0.3125 q 0,-0.7125 -0.275,-1 -0.275,-0.2875 -0.95,-0.2875 -0.4125,0 -1.05,0.15 -0.6375,0.15 -1.075,0.35 v -0.9 q 0.4375,-0.1875 1.0625,-0.3125 0.625,-0.125 1.0625,-0.125 z m 1.225,3.1875 h -0.6 q -2.125,0 -2.125,1.5625 0,0.5625 0.2875,0.8625 0.2875,0.3 0.775,0.3 0.7375,0 1.2,-0.6 0.4625,-0.6 0.4625,-1.6875 z" style="stroke-width:1px"/></g></g><path style="fill:#666;fill-opacity:1;fill-rule:evenodd;stroke:none;stroke-width:1px;stroke-linecap:butt;stroke-linejoin:miter;stroke-opacity:1" id="path5618-0-1" d="m 218.89686,200.25581 12.39295,0.0223 -0.0207,10.0459 15.43867,-18.10275 -15.42523,-17.8284 -0.01,10.00683 -12.41063,-0.0434 z"/><text style="font-style:normal;font-variant:normal;font-weight:400;font-stretch:normal;font-size:12.5px;line-height:0%;font-family:'VL Gothic';-inkscape-font-specification:'VL Gothic';text-align:start;letter-spacing:0;word-spacing:0;writing-mode:lr-tb;text-anchor:start;fill:#000;fill-opacity:1;stroke:none;stroke-width:1px;stroke-linecap:butt;stroke-linejoin:miter;stroke-opacity:1" id="text4771-7-36" x="120.785" y="72.012" xml:space="preserve"><tspan style="stroke-width:1px" id="tspan4773-5-7" x="120.785" y="72.012">host parser</tspan></text><text style="font-style:normal;font-variant:normal;font-weight:400;font-stretch:normal;font-size:12.5px;line-height:0%;font-family:'VL Gothic';-inkscape-font-specification:'VL Gothic';text-align:start;letter-spacing:0;word-spacing:0;writing-mode:lr-tb;text-anchor:start;fill:#000;fill-opacity:1;stroke:none;stroke-width:1px;stroke-linecap:butt;stroke-linejoin:miter;stroke-opacity:1" id="text4771-7-36-5" x="131.388" y="195.46" xml:space="preserve"><tspan style="stroke-width:1px" id="tspan4773-5-7-3" x="131.388" y="195.46">guest parser</tspan></text></g></svg>